<?xml version="1.0" encoding="UTF-8"?>
<!DOCTYPE svg PUBLIC "-//W3C//DTD SVG 1.1//EN" "http://www.w3.org/Graphics/SVG/1.1/DTD/svg11.dtd">
<!-- Creator: CorelDRAW 2021.5 -->
<svg xmlns="http://www.w3.org/2000/svg" xml:space="preserve" width="0.612874in" height="0.11563in" version="1.1" style="shape-rendering:geometricPrecision; text-rendering:geometricPrecision; image-rendering:optimizeQuality; fill-rule:evenodd; clip-rule:evenodd"
viewBox="0 0 73.87 13.94"
 xmlns:xlink="http://www.w3.org/1999/xlink"
 xmlns:xodm="http://www.corel.com/coreldraw/odm/2003">
 <defs>
  <style type="text/css">
   <![CDATA[
    .fil0 {fill:#FEFEFE}
   ]]>
  </style>
 </defs>
 <g id="Layer_x0020_1">
  <metadata id="CorelCorpID_0Corel-Layer"/>
  <g id="_1884873033264">
   <g>
    <path class="fil0" d="M-0 13.92l10.59 0c2.43,0 4.26,0.27 6.15,-1.32l0.24 -0.21c0.1,-0.08 0.14,-0.12 0.22,-0.2 1.01,-1 1.46,-2.43 2.02,-3.75l1.02 -2.52 -3.41 0c-0.03,0.13 -0.09,0.23 -0.14,0.36l-0.47 1.12c-0.23,0.51 -0.71,1.81 -1,2.19 -0.16,0.21 -0.32,0.4 -0.52,0.55 -0.4,0.3 -0.88,0.55 -1.54,0.59 -0.66,0.03 -1.43,-0 -2.1,-0 -2.13,0 -4.26,0 -6.39,0l0.24 -0.63c0.08,-0.21 0.18,-0.44 0.26,-0.65l1.52 -3.82c0.33,-0.82 0.37,-1.11 0.96,-1.7 0.47,-0.47 1.2,-0.73 1.96,-0.72 2.51,0 5.09,-0.02 7.58,0 0.26,0 0.19,0.01 0.36,-0.1 0.2,-0.12 0.36,-0.23 0.56,-0.35 1.27,-0.78 2.6,-1.64 3.86,-2.39 0.09,-0.05 0.51,-0.3 0.55,-0.36l-11.36 0c-0.75,0 -1.56,-0.03 -2.26,0.03 -1.35,0.12 -2.57,0.75 -3.34,1.5 -0.07,0.06 -0.1,0.07 -0.16,0.13 -0.11,0.1 -0.16,0.19 -0.27,0.29 -0.22,0.22 -0.55,0.72 -0.71,0.99l-4.27 10.55c-0.05,0.13 -0.13,0.29 -0.16,0.43z"/>
    <path class="fil0" d="M8.75 8.81l5.14 0 0.58 -1.44c0.1,-0.24 0.2,-0.48 0.29,-0.72l0.3 -0.74 -5.14 0c-0.11,0.21 -1.16,2.8 -1.17,2.9z"/>
   </g>
   <path class="fil0" d="M22.81 6.71c0,0.92 0.05,1.37 0.47,2.22 0.25,0.51 0.56,0.88 0.95,1.26 0.06,0.06 0.08,0.07 0.15,0.12 0.25,0.21 0.49,0.41 0.8,0.56 0.07,0.04 0.11,0.07 0.17,0.1 1.2,0.62 2.81,0.62 4.03,0.04 0.28,-0.13 0.55,-0.27 0.79,-0.44 0.11,-0.08 0.64,-0.46 0.64,-0.58l0 -3.46 -3.7 0 0 1.3 2.15 0 0 1.49c0,0.1 -0.2,0.19 -0.32,0.26 -0.12,0.07 -0.28,0.15 -0.42,0.19 -1.01,0.37 -1.99,0.27 -2.87,-0.36 -0.7,-0.51 -1.24,-1.43 -1.24,-2.49 0,-1.58 1.33,-2.98 2.98,-2.98 0.6,0 1.4,0.26 1.84,0.61 0.13,0.1 0.34,0.28 0.42,0.4 0.22,-0.15 0.98,-0.97 1.12,-1.01 -0.01,-0.12 -0.13,-0.21 -0.25,-0.3l-0.67 -0.48c-0.59,-0.33 -1.47,-0.66 -2.24,-0.66 -0.85,0 -1.43,0.06 -2.18,0.43 -0.41,0.2 -0.93,0.54 -1.26,0.87 -0.57,0.57 -0.96,1.2 -1.2,1.99 -0.07,0.24 -0.15,0.63 -0.15,0.91z"/>
   <path class="fil0" d="M53.76 8.06c0,-1.1 0.68,-2.1 1.68,-2.1 0.63,0 1.07,0.1 1.5,0.58 0.79,0.89 0.69,2.77 -0.52,3.38 -1.25,0.63 -2.65,-0.27 -2.65,-1.85zm-1.54 3.22l1.54 0 0 -0.98c0.03,0.03 0.05,0.06 0.09,0.1l0.31 0.33c0.76,0.76 2.16,0.91 3.12,0.42 0.7,-0.36 1.19,-0.95 1.46,-1.68 0.32,-0.87 0.33,-1.98 0.01,-2.85 -0.04,-0.1 -0.07,-0.18 -0.11,-0.27 -0.08,-0.19 -0.32,-0.57 -0.45,-0.72 -0.06,-0.06 -0.12,-0.13 -0.18,-0.19 -0.06,-0.06 -0.13,-0.13 -0.19,-0.18 -0.14,-0.13 -0.3,-0.21 -0.46,-0.31 -0.85,-0.51 -2.15,-0.42 -2.98,0.2 -0.09,0.07 -0.13,0.11 -0.22,0.18 -0.11,0.09 -0.31,0.36 -0.38,0.41l0 -3.24 -1.54 0 0 8.78z"/>
   <path class="fil0" d="M62.83 10.3l-0.19 0c-0.56,0 -1.14,-0.37 -1.14,-0.93 0,-0.37 0.09,-0.6 0.42,-0.83 0.71,-0.49 1.78,-0.2 2.53,-0.02 0,0.73 0.09,1.03 -0.63,1.5 -0.23,0.15 -0.69,0.28 -1,0.28zm-2.26 -5l0.26 0.54c0.1,0.19 0.18,0.37 0.27,0.55 0.4,-0.21 1.16,-0.48 1.6,-0.48 0.58,0 0.97,0.01 1.39,0.45 0.26,0.27 0.36,0.66 0.36,1.18 -0.26,-0.06 -0.42,-0.15 -0.83,-0.24 -1.01,-0.21 -2,-0.14 -2.81,0.46 -1.56,1.16 -0.88,3.69 1.59,3.69 0.61,0 1.22,-0.23 1.66,-0.55 0.15,-0.11 0.26,-0.27 0.39,-0.35l0 0.74 1.49 0 0 -4.1c0,-0.52 -0.19,-1.06 -0.46,-1.46 -0.45,-0.68 -1.31,-1.1 -2.15,-1.1 -0.73,0 -0.95,0.03 -1.64,0.22 -0.37,0.11 -1.07,0.43 -1.13,0.44z"/>
   <path class="fil0" d="M40.61 10.11c-1.54,0 -2.44,-1.57 -1.88,-2.91 0.18,-0.42 0.5,-0.8 0.9,-1.01 0.56,-0.3 1.21,-0.3 1.77,-0.01 1.17,0.61 1.45,2.34 0.54,3.28 -0.34,0.35 -0.8,0.66 -1.34,0.66zm-0.08 1.33c2.94,0 4.7,-3.57 2.49,-5.76 -0.3,-0.3 -0.59,-0.5 -0.98,-0.7 -0.93,-0.47 -2.06,-0.45 -3,-0.02 -0.32,0.15 -0.76,0.46 -1,0.7 -0.3,0.3 -0.5,0.63 -0.69,1.01 -0.08,0.16 -0.18,0.43 -0.22,0.63 -0.03,0.11 -0.05,0.26 -0.06,0.36 -0.01,0.14 -0.04,0.3 -0.03,0.42 0.06,0.68 0.18,1.13 0.49,1.64 0.16,0.27 0.35,0.49 0.57,0.71 0.51,0.51 1.41,1 2.43,1z"/>
   <path class="fil0" d="M68.74 12.32c-0.37,0 -0.65,-0.09 -0.93,-0.24l-0.23 0.83c-0.03,0.11 -0.06,0.18 -0.09,0.29 1.07,0.56 2.37,0.5 3.15,-0.55 0.12,-0.16 0.23,-0.34 0.33,-0.53 0.19,-0.38 0.33,-0.8 0.49,-1.21l1.94 -4.9c0.07,-0.18 0.47,-1.14 0.48,-1.25l-1.57 0c-0.05,0.09 -0.07,0.18 -0.11,0.28l-1.44 3.93c-0.05,0.14 -0.16,0.54 -0.25,0.6l-0.93 -2.42c-0.1,-0.27 -0.84,-2.23 -0.95,-2.4l-1.6 0c0.01,0.09 0.14,0.39 0.19,0.5l0.63 1.5c0.28,0.67 0.56,1.32 0.83,1.99l1.04 2.47c0.06,0.14 -0.01,0.22 -0.14,0.48 -0.16,0.31 -0.34,0.61 -0.82,0.61z"/>
   <path class="fil0" d="M48.46 11.44c0.53,0 1.11,-0.15 1.47,-0.34 0.23,-0.12 0.37,-0.19 0.56,-0.34 0.12,-0.09 0.43,-0.31 0.46,-0.44 -0.02,-0.02 -0.2,-0.19 -0.24,-0.22 -0.1,-0.08 -0.15,-0.14 -0.26,-0.22l-0.26 -0.22c-0.08,-0.07 -0.18,-0.16 -0.26,-0.22 -0.13,0.08 -0.25,0.27 -0.59,0.44 -0.55,0.28 -1.15,0.31 -1.71,0.03 -1.16,-0.58 -1.53,-2.25 -0.6,-3.3 0.16,-0.18 0.31,-0.3 0.53,-0.43 0.54,-0.33 1.21,-0.29 1.77,-0.02 0.17,0.08 0.46,0.27 0.56,0.43 0.1,-0.07 0.94,-0.85 1.04,-0.88 -0.06,-0.23 -0.77,-0.65 -0.96,-0.75 -0.98,-0.49 -2.03,-0.44 -3.01,-0.01 -0.07,0.03 -0.08,0.04 -0.14,0.08 -0.06,0.03 -0.08,0.04 -0.14,0.08 -0.14,0.08 -0.38,0.24 -0.5,0.35 -0.25,0.24 -0.38,0.32 -0.61,0.67 -0.28,0.43 -0.56,1.02 -0.58,1.54 -0.01,0.14 -0.04,0.28 -0.02,0.39 0.06,0.56 0.09,0.85 0.34,1.36 0.1,0.21 0.18,0.35 0.32,0.54 0.59,0.8 1.6,1.46 2.82,1.46z"/>
   <path class="fil0" d="M33.96 5.99l0 -1.22 -1.46 0c-0.06,0 -0.08,0.02 -0.08,0.08l0 6.44 1.54 0 0 -3.22c0,-0.69 0.23,-1.21 0.74,-1.63 0.43,-0.36 0.99,-0.47 1.58,-0.47l0 -1.33c-0.91,0 -1.66,0.37 -2.14,1.08l-0.18 0.28z"/>
  </g>
 </g>
</svg>
